<?xml version="1.0" encoding="UTF-8" standalone="no"?>
<!-- Created with Inkscape (http://www.inkscape.org/) -->

<svg
   xmlns:dc="http://purl.org/dc/elements/1.1/"
   xmlns:cc="http://creativecommons.org/ns#"
   xmlns:rdf="http://www.w3.org/1999/02/22-rdf-syntax-ns#"
   xmlns:svg="http://www.w3.org/2000/svg"
   xmlns="http://www.w3.org/2000/svg"
   xmlns:sodipodi="http://sodipodi.sourceforge.net/DTD/sodipodi-0.dtd"
   xmlns:inkscape="http://www.inkscape.org/namespaces/inkscape"
   version="1.1"
   id="svg2"
   width="664.21625"
   height="664.21625"
   viewBox="0 0 664.21625 664.21625"
   sodipodi:docname="logo512.svg"
   inkscape:version="0.92.4 (5da689c313, 2019-01-14)">
  <metadata
     id="metadata8">
    <rdf:RDF>
      <cc:Work
         rdf:about="">
        <dc:format>image/svg+xml</dc:format>
        <dc:type
           rdf:resource="http://purl.org/dc/dcmitype/StillImage" />
        <dc:title></dc:title>
      </cc:Work>
    </rdf:RDF>
  </metadata>
  <defs
     id="defs6" />
  <sodipodi:namedview
     pagecolor="#ffffff"
     bordercolor="#666666"
     borderopacity="1"
     objecttolerance="10"
     gridtolerance="10"
     guidetolerance="10"
     inkscape:pageopacity="0"
     inkscape:pageshadow="2"
     inkscape:window-width="1920"
     inkscape:window-height="1017"
     id="namedview4"
     showgrid="false"
     inkscape:zoom="0.35530597"
     inkscape:cx="-18.294092"
     inkscape:cy="557.26617"
     inkscape:window-x="1072"
     inkscape:window-y="394"
     inkscape:window-maximized="1"
     inkscape:current-layer="svg2" />
  <path
     style="fill:#ffffff;stroke-width:1"
     d="m 307.86847,577.98733 c -3.42839,-0.4992 -4.21582,-1.2899 -4.8962,-4.9166 -1.20922,-6.4457 -3.27891,-101.432 -3.31293,-152.0432 -0.0335,-49.86066 0.89532,-45.86853 -10.67208,-45.86853 -8.76419,0 -31.69175,-3.4375 -44.49283,-6.67076 -36.06122,-9.10825 -71.56464,-28.73668 -98.50831,-54.46135 -23.02253,-21.98092 -35.8232,-39.45497 -48.825891,-66.65168 -13.61003,-28.46705 -19.69991,-52.30254 -22.49439,-88.042 l -0.69643,-8.90688 47.640891,0.68131 c 53.54525,0.76574 59.61026,1.52859 88.23014,11.09754 63.56964,21.25424 113.9089,68.9266 138.46484,131.12915 2.65532,6.72617 6.86237,20.15319 9.34899,29.83784 l 4.52113,17.60845 1.21656,55.78379 c 1.13193,51.90412 -0.38333,178.99932 -2.1552,180.77122 -0.85482,0.8548 -48.0173,1.4307 -53.36829,0.6517 z m 79.89069,-270.44968 c -0.70997,-1.32656 -3.37362,-8.4004 -5.91925,-15.71962 -9.53486,-27.41487 -23.17307,-52.20836 -42.0764,-76.49251 -5.66285,-7.27479 -10.2961,-13.9064 -10.2961,-14.73693 0,-0.83052 4.80679,-8.4487 10.68175,-16.92928 14.17449,-20.46105 38.07901,-44.496 56.94055,-57.25125 24.75149,-16.73838 52.94268,-29.036384 81.26812,-35.452064 13.403,-3.03576 46.21441,-4.98606 84.95877,-5.04991 l 26.93024,-0.0444 -0.70883,7.45946 c -3.28198,34.538004 -7.6843,54.337564 -17.35642,78.060854 -20.59264,50.50865 -59.25735,92.06442 -108.4439,116.5525 -17.60797,8.76633 -43.61297,16.97012 -64.58709,20.37528 -9.4546,1.53495 -10.18317,1.48556 -11.39144,-0.77213 z"
     id="path4520"
     inkscape:connector-curvature="0" />
</svg>
